<?xml version="1.0" encoding="UTF-8" standalone="no"?>
<!-- Created with Inkscape (http://www.inkscape.org/) -->

<svg
   xmlns:dc="http://purl.org/dc/elements/1.1/"
   xmlns:cc="http://creativecommons.org/ns#"
   xmlns:rdf="http://www.w3.org/1999/02/22-rdf-syntax-ns#"
   xmlns:svg="http://www.w3.org/2000/svg"
   xmlns="http://www.w3.org/2000/svg"
   xmlns:sodipodi="http://sodipodi.sourceforge.net/DTD/sodipodi-0.dtd"
   xmlns:inkscape="http://www.inkscape.org/namespaces/inkscape"
   width="1062.9922"
   height="1068.7491"
   id="svg2"
   version="1.1"
   inkscape:version="0.48.5 r10040"
   sodipodi:docname="Indonesia Warning Sign 1a.svg">
  <defs
     id="defs4" />
  <sodipodi:namedview
     id="base"
     pagecolor="#ffffff"
     bordercolor="#666666"
     borderopacity="1.0"
     inkscape:pageopacity="0.0"
     inkscape:pageshadow="2"
     inkscape:zoom="0.13704496"
     inkscape:cx="530.85911"
     inkscape:cy="20.033407"
     inkscape:document-units="px"
     inkscape:current-layer="layer1"
     showgrid="false"
     fit-margin-top="0"
     fit-margin-left="0"
     fit-margin-right="0"
     fit-margin-bottom="0"
     inkscape:window-width="1024"
     inkscape:window-height="578"
     inkscape:window-x="-8"
     inkscape:window-y="-8"
     inkscape:window-maximized="1" />
  <metadata
     id="metadata7">
    <rdf:RDF>
      <cc:Work
         rdf:about="">
        <dc:format>image/svg+xml</dc:format>
        <dc:type
           rdf:resource="http://purl.org/dc/dcmitype/StillImage" />
        <dc:title />
      </cc:Work>
    </rdf:RDF>
  </metadata>
  <g
     inkscape:label="Layer 1"
     inkscape:groupmode="layer"
     id="layer1"
     transform="translate(-75.658257,12.484162)">
    <path
       style="fill:#000000"
       d="M 588.31369,1044.6662 C 585.92726,1042.0782 471.59017,929.01393 333.25977,790.67786 124.37212,581.78168 81.329447,538.31194 79.268514,534.16656 c -4.862145,-9.77977 -4.81205,-20.40063 0.143387,-30.40017 1.867541,-3.7685 52.418949,-54.76182 255.242259,-257.47357 284.37335,-284.216886 256.85427,-258.147267 272.50015,-258.147267 15.66616,0 -11.90988,-26.123164 272.49631,258.139557 202.59338,202.49114 253.37368,253.717 255.24228,257.48128 4.9586,9.9893 5.0107,20.61358 0.1493,30.40017 -2.0613,4.14978 -45.1156,47.6057 -255.39026,257.77267 -281.28858,281.14457 -230.29129,230.28837 -252.26768,252.72727 -15.14959,15.4685 -24.81367,15.461 -39.07057,-3e-4 z"
       id="path3789"
       inkscape:connector-curvature="0"
       sodipodi:nodetypes="sssssssscsss" />
    <path
       style="fill:#fedf00;fill-opacity:1;stroke:#000000;stroke-width:1;stroke-opacity:1"
       d="M 860.14417,772.47791 C 1060.7022,572.00202 1111.2768,520.97772 1111.2768,519.11248 c 0,-1.86524 -50.5746,-52.88953 -251.13263,-253.36542 C 694.08496,99.755837 608.38235,14.717209 607.1543,14.717209 c -1.22806,0 -86.93067,85.038628 -252.98987,251.029851 -200.55801,200.47589 -251.13267,251.50018 -251.13267,253.36542 0,1.86524 50.57466,52.88954 251.13267,253.36543 166.0592,165.99123 251.76181,251.02989 252.98987,251.02989 1.22805,0 86.93066,-85.03866 252.98987,-251.02989 z"
       id="path3787"
       inkscape:connector-curvature="0" />
    <path
       style="fill:#000000"
       d="m 720.47695,690.72452 0,-70.79605 -3.30697,-16.14455 c -4.86805,-23.76565 -9.07576,-39.28833 -13.30058,-49.06722 -18.64334,-43.15231 -62.10325,-82.39337 -108.15848,-97.65906 -5.7809,-1.91616 -10.64151,-3.31716 -10.80136,-3.11331 -0.15987,0.20383 -2.56518,13.75076 -5.34515,30.1043 -3.14132,18.47922 -5.65668,30.72531 -6.64546,32.35351 -2.6541,4.37046 -6.67223,5.83562 -17.16832,6.26019 -9.31544,0.37682 -9.46795,0.34852 -12.30745,-2.2834 -4.57102,-4.23685 -146.61196,-176.79284 -146.61196,-178.109 0,-0.65244 1.15421,-1.77388 2.56491,-2.49208 1.41071,-0.7182 51.02831,-13.98869 110.26136,-29.48999 94.23303,-24.66078 108.3601,-28.13617 113.00513,-27.80031 10.24884,0.74106 16.18054,7.45028 17.24016,19.5 l 0.52324,5.9502 -12.28703,25.51126 c -6.75786,14.03118 -11.93557,25.83589 -11.50602,26.23269 0.42955,0.39678 4.76828,2.27162 9.64162,4.16631 4.87334,1.89467 17.25489,7.58826 27.51455,12.65241 26.6612,13.15992 46.11555,25.67914 66.51738,42.80514 31.82949,26.71874 56.8181,59.86358 72.56161,96.24554 9.96162,23.02047 19.88078,55.21009 21.7754,70.66533 0.60363,4.92415 0.96848,39.43277 0.96848,91.60228 l 0,83.70186 -47.56752,0 -47.56754,0 0,-70.79605 z"
       id="path3783"
       inkscape:connector-curvature="0" />
  </g>
</svg>
